<?xml version="1.0" encoding="UTF-8"?>
<svg viewBox="0 0 160 160" xmlns="http://www.w3.org/2000/svg" fill="#1a1a23">
    <rect x="0" y="0" width="160" height="160" fill="#1a1a23"/>
    <g transform="translate(16, 16)">
        <g fill="#6c757d">
            <path d="m7.042 114.751 41.536-41.536.047-19.096L7.279 12.773a2.204 2.204 0 0 0-1.131-.598 2.222 2.222 0 0 0-2.272.944c-.245.363-.377.79-.38 1.226l-.04 18.477a2.183 2.183 0 0 0 .745 1.702l.8.683 27.25 22.52-26.384-2.855a2.234 2.234 0 0 0-2.302 1.317c-.128.29-.194.602-.192.918l.05 13.387a2.213 2.213 0 0 0 .73 1.68 2.203 2.203 0 0 0 1.747.55l26.398-3.008L4.897 92.352l-.81.693a2.221 2.221 0 0 0-.777 1.682l-.045 18.47a2.21 2.21 0 0 0 1.366 2.035c.403.166.847.209 1.276.123a2.234 2.234 0 0 0 1.135-.604z"/>
            <path d="M120.958 15.61 79.422 57.145l-.047 19.096 41.346 41.346c.31.307.703.515 1.131.598a2.222 2.222 0 0 0 2.272-.944c.245-.363.377-.79.38-1.226l.04-18.477a2.183 2.183 0 0 0-.745-1.703l-.8-.682-27.25-22.52 26.384 2.855a2.234 2.234 0 0 0 2.302-1.317c.128-.29.194-.603.192-.919l-.05-13.387a2.213 2.213 0 0 0-.73-1.68 2.203 2.203 0 0 0-1.747-.549l-26.398 3.008 27.401-22.637.81-.692a2.221 2.221 0 0 0 .777-1.682l.045-18.47a2.21 2.21 0 0 0-1.366-2.035 2.216 2.216 0 0 0-1.276-.124 2.234 2.234 0 0 0-1.134.604z"/>
            <path d="M113.237 121.384 71.7 79.848 52.604 79.8l-41.346 41.346c-.307.309-.515.703-.598 1.131a2.222 2.222 0 0 0 .944 2.272c.363.245.79.377 1.226.38l18.477.04a2.183 2.183 0 0 0 1.703-.745l.682-.8 22.52-27.25-2.855 26.384a2.234 2.234 0 0 0 1.317 2.302c.29.128.603.194.919.192l13.387-.05a2.213 2.213 0 0 0 1.68-.73 2.203 2.203 0 0 0 .549-1.747L68.2 96.128l22.637 27.401.692.81a2.221 2.221 0 0 0 1.682.777l18.47.045a2.21 2.21 0 0 0 2.035-1.366c.166-.403.21-.847.124-1.276a2.234 2.234 0 0 0-.604-1.135z"/>
        </g>
        <path fill="#f5c0c0" d="m13.561 6.616 41.537 41.536 19.096.047L115.54 6.853c.307-.31.515-.703.598-1.131a2.222 2.222 0 0 0-.944-2.272 2.227 2.227 0 0 0-1.226-.38L95.49 3.03a2.183 2.183 0 0 0-1.703.745l-.682.8-22.52 27.25L73.44 5.44a2.234 2.234 0 0 0-1.317-2.302 2.234 2.234 0 0 0-.919-.192l-13.387.05a2.213 2.213 0 0 0-1.68.73 2.203 2.203 0 0 0-.549 1.747l3.008 26.398L35.96 4.471l-.692-.81a2.221 2.221 0 0 0-1.682-.777L15.115 2.84a2.21 2.21 0 0 0-2.034 1.366 2.216 2.216 0 0 0-.124 1.276c.086.429.296.823.604 1.135z"/>
    </g>
</svg>
